#!OML:ASF I:\Actors\actors\Patient Classification 1\Patient 1\Session 1\Subject1.ASF
:FULLY-SPECIFIED
:DEGREES
478
root -0.157805 17.5808 8.04464 7.77174 -2.36165 -8.03211
lowerback 3.66061 3.14934 2.6065
upperback -8.21582 4.53389 0.324039
thorax -10.6326 2.00834 -1.67975
lowerneck -14.8939 -2.55792 0.527794
upperneck 32.0555 -5.39661 4.36864
head 13.407 -1.70123 0.779595
rclavicle -1.59028e-015 2.22639e-014
rhumerus -14.7141 57.1139 -101.432
rradius 62.8366
rwrist -29.3722
rhand -0.792872 294.061
rfingers 7.12502
rthumb 24.8307 94.3472
lclavicle -1.59028e-015 2.22639e-014
lhumerus -24.5776 -20.2565 96.2698
lradius 80.1776
lwrist 1.86195
lhand -25.8897 -2.81033
lfingers 7.12502
lthumb 0.652304 27.1684
rfemur -0.290797 22.9064 25.4997
rtibia 1.37472
rfoot -11.7885 -22.5533
rtoes 1.17295
lfemur 9.03295 -41.0014 -17.727
ltibia -4.13453
lfoot -16.5872 48.3955
ltoes 6.19927
479
root -0.155389 17.5844 8.04167 7.90287 -2.40531 -8.08834
lowerback 3.7282 3.1588 2.55974
upperback -8.26194 4.54769 0.335402
thorax -10.7297 2.01676 -1.64992
lowerneck -14.6929 -2.57415 0.621916
upperneck 31.5263 -5.37825 4.28127
head 13.1304 -1.71198 0.730377
rclavicle -1.67973e-014 -1.03368e-014
rhumerus -14.3634 53.4875 -101.571
rradius 65.1713
rwrist -26.9688
rhand -6.56724 290.027
rfingers 7.12502
rthumb 19.287 99.0368
lclavicle -1.67973e-014 -1.03368e-014
lhumerus -24.6691 -19.9932 96.113
lradius 80.1868
lwrist 1.56642
lhand -26.0479 -2.78731
lfingers 7.12502
lthumb 0.499494 27.1918
rfemur -0.482306 22.9523 25.4789
rtibia 1.40325
rfoot -11.7432 -22.5488
rtoes 1.17767
lfemur 8.83195 -41.0425 -17.5309
ltibia -4.13403
lfoot -16.7447 48.4498
ltoes 6.47789
480
root -0.15432 17.5908 8.03509 8.04574 -2.36596 -8.25806
lowerback 3.92387 3.10296 2.64609
upperback -8.40225 4.49692 0.382526
thorax -11.0078 1.97912 -1.65958
lowerneck -14.5428 -2.51401 0.946284
upperneck 31.4252 -5.24139 3.88553
head 13.0272 -1.67185 0.543125
rclavicle -3.15074e-014 -2.62396e-014
rhumerus -11.9598 52.243 -99.7048
rradius 67.6938
rwrist -24.3162
rhand -4.80566 286.341
rfingers 7.12502
rthumb 20.9801 102.545
lclavicle -3.15074e-014 -2.62396e-014
lhumerus -25.0431 -19.6007 95.9477
lradius 80.305
lwrist 1.56816
lhand -26.0621 -2.7929
lfingers 7.12502
lthumb 0.485769 27.1863
rfemur -0.746562 23.0285 25.5814
rtibia 1.50807
rfoot -11.7372 -22.6094
rtoes 1.06905
lfemur 8.45989 -40.896 -17.0205
ltibia -4.13726
lfoot -16.6506 48.2709
ltoes 6.4443
481
root -0.151747 17.5977 8.02291 8.16786 -2.2137 -8.53541
lowerback 4.21112 2.97655 2.93467
upperback -8.56613 4.37765 0.447856
thorax -11.3606 1.88905 -1.75856
lowerneck -14.521 -2.42925 1.30109
upperneck 31.7072 -5.0749 3.39973
head 13.1099 -1.61451 0.320234
rclavicle 4.01545e-014 -4.77083e-015
rhumerus -9.3813 51.8052 -97.7779
rradius 70.6893
rwrist -24.9303
rhand -10.7138 290.726
rfingers 7.12502
rthumb 15.2962 98.6884
lclavicle 4.01545e-014 -4.77083e-015
lhumerus -25.5134 -19.1353 95.7312
lradius 80.4366
lwrist 1.87975
lhand -26.165 -2.76818
lfingers 7.12502
lthumb 0.386336 27.2112
rfemur -1.02687 23.1063 25.8183
rtibia 1.64725
rfoot -11.7583 -22.7631
rtoes 1.21979
lfemur 7.92587 -40.607 -16.2525
ltibia -4.07154
lfoot -16.236 47.8863
ltoes 5.96588
482
root -0.145324 17.5999 8.0171 8.29412 -2.19217 -8.69056
lowerback 4.12148 2.86918 3.12494
upperback -8.56741 4.25306 0.511808
thorax -11.3056 1.81708 -1.77316
lowerneck -14.544 -2.32704 1.4183
upperneck 31.9491 -4.90503 3.19278
head 13.2039 -1.54731 0.245754
rclavicle -1.41137e-014 3.97569e-015
rhumerus -5.78949 50.7467 -95.131
rradius 73.7277
rwrist -22.647
rhand -11.8833 290.831
rfingers 7.12502
rthumb 14.1695 98.6654
lclavicle -1.41137e-014 3.97569e-015
lhumerus -25.6802 -18.6116 95.4336
lradius 80.4384
lwrist 2.23003
lhand -26.3769 -2.66082
lfingers 7.12502
lthumb 0.181681 27.3188
rfemur -1.23504 23.1388 25.9007
rtibia 1.68286
rfoot -11.7034 -22.7934
rtoes 1.29456
lfemur 7.63579 -40.6199 -15.8932
ltibia -4.01966
lfoot -16.1423 47.8998
ltoes 5.8704
483
root -0.13761 17.5993 8.01677 8.39858 -2.32482 -8.72734
lowerback 3.96888 2.82025 3.29154
upperback -8.5371 4.19043 0.473585
thorax -11.1668 1.77428 -1.88759
lowerneck -14.3902 -2.10193 1.71097
upperneck 31.9927 -4.61664 3.07874
head 13.1748 -1.40165 0.197427
rclavicle -5.2181e-014 -9.54166e-015
rhumerus -2.23002 50.0608 -92.6626
rradius 77.5698
rwrist -22.7734
rhand -12.9767 290.918
rfingers 7.12502
rthumb 13.1156 98.65
lclavicle -5.2181e-014 -9.54166e-015
lhumerus -25.7344 -18.235 95.0445
lradius 80.3349
lwrist 2.40119
lhand -26.4296 -2.7443
lfingers 7.12502
lthumb 0.130861 27.2354
rfemur -1.3417 23.1944 25.8589
rtibia 1.63087
rfoot -11.5939 -22.7393
rtoes 1.14208
lfemur 7.63317 -40.8209 -15.92
ltibia -4.03522
lfoot -16.4942 48.1974
ltoes 6.44789
484
root -0.131092 17.5988 8.01328 8.42859 -2.43509 -8.73883
lowerback 4.10443 2.7914 3.43619
upperback -8.56605 4.16565 0.402923
thorax -11.2691 1.74228 -2.04942
lowerneck -14.2287 -1.89422 2.10232
upperneck 32.0769 -4.38311 2.96432
head 13.1618 -1.26662 0.123286
rclavicle 4.67144e-015 -1.35174e-014
rhumerus 1.03361 48.097 -90.6146
rradius 80.9591
rwrist -20.4217
rhand -11.2352 290.975
rfingers 7.12502
rthumb 14.7939 98.4765
lclavicle 4.67144e-015 -1.35174e-014
lhumerus -25.859 -18.0371 94.7219
lradius 80.27
lwrist 2.30519
lhand -26.3614 -2.79024
lfingers 7.12502
lthumb 0.19672 27.1894
rfemur -1.34617 23.2948 25.84
rtibia 1.54942
rfoot -11.4757 -22.7519
rtoes 0.971532
lfemur 7.69785 -40.9119 -15.9925
ltibia -4.07388
lfoot -16.6964 48.3739
ltoes 6.79443
